# Blender v3.2.0 OBJ File: ''
# www.blender.org
mtllib untitled.mtl
o Suzanne_Suzanne.001
v -0.578125 0.054688 0.546875
v -0.578125 0.054688 -0.546875
v -0.626154 -0.039891 -0.348823
v -0.626154 -0.039891 0.348823
v -0.809088 0.183277 0.243436
v -0.648438 0.054688 0.156250
v -0.648438 0.054688 -0.156250
v -0.663968 0.241075 -0.066086
v -0.664332 0.241473 0.065622
v -0.805121 0.364523 0.296268
v -0.648438 0.437500 0.156250
v -0.648438 0.437500 -0.156250
v -0.617188 0.515625 0.351562
v -0.617188 0.515625 -0.351563
v -0.805224 0.363527 -0.293751
v -0.768140 0.309081 -0.466618
v -0.578125 0.437500 0.546875
v -0.578125 0.437500 -0.546875
v -0.566534 0.242106 0.633369
v -0.566494 0.242030 -0.633263
v -0.768123 0.308394 0.467091
v -0.809604 0.183168 -0.243136
v -0.794655 0.129821 0.411605
v -0.794655 0.129821 -0.411605
v -0.796875 -0.187500 -0.000000
v 0.546875 0.898438 0.000000
v 0.886247 0.425610 0.161855
v 0.351562 -0.382812 0.000000
v -0.529801 -0.193371 -0.223717
v -0.537520 -0.182572 0.223095
v -0.573527 -0.927976 -0.356728
v -0.574956 -0.923432 0.356416
v -0.569124 -0.083400 0.561106
v -0.631966 0.401529 0.801472
v -0.746560 0.768544 0.253604
v -0.748109 0.768836 -0.253433
v -0.744456 0.418818 -0.000467
v -0.665211 0.172832 0.611977
v -0.761877 0.481956 -0.261609
v -0.752781 0.476701 0.306832
v -0.750000 -0.195312 -0.000000
v -0.742188 -0.140625 -0.000000
v -0.804936 -0.130101 0.085959
v -0.582604 -0.058461 -0.590524
v -0.639416 0.389995 -0.816663
v -0.854577 0.648821 -0.248244
v -0.850654 0.656178 0.252976
v -0.829469 0.325982 -0.006031
v -0.792388 -0.118257 -0.091305
v -0.591458 -0.984477 0.017284
v -0.742287 0.130465 -0.102173
v -0.751561 -0.242667 0.134283
v -0.762465 -0.332462 -0.003510
v -0.759088 -0.242695 -0.128254
v -0.717271 -0.797565 0.096341
v -0.728907 -0.730395 -0.098573
v -0.647164 -0.792467 0.093144
v -0.683015 -0.865276 -0.065943
v -0.752534 0.388532 -0.412973
v -0.681778 0.301844 -0.548006
v -0.683209 0.212734 -0.543159
v -0.707842 0.120128 -0.460760
v -0.727129 0.085633 -0.374026
v -0.760369 0.304100 0.198150
v -0.761091 0.294624 -0.196071
v -0.778324 0.398592 0.293952
v -0.756619 0.132351 0.222894
v -0.697299 0.069190 0.414528
v -0.671875 0.210938 0.546875
v -0.675520 0.303430 0.549449
v -0.752042 0.390627 0.411560
v -0.770937 0.396572 -0.280962
v -0.760223 0.134763 -0.227140
v -0.632235 0.430919 -0.002492
v -0.606235 0.709033 -0.261462
v -0.607407 0.708855 0.260303
v -0.474708 0.528564 -0.457458
v -0.307327 0.400774 -0.711654
v -0.420019 0.161472 -0.803836
v -0.453043 -0.104066 -0.436074
v -0.417886 0.119346 0.785346
v -0.190772 0.976525 0.001752
v 0.779360 -0.075160 -0.011619
v -0.158112 0.041023 -0.795840
v 0.387405 0.350337 -0.831749
v 0.691108 0.417757 -0.490828
v -0.177529 0.064879 0.814251
v 0.538381 0.047078 0.533910
v 0.332369 -0.086049 -0.738105
v -0.341908 -0.410230 -0.214052
v -0.396656 -0.914282 -0.322199
v -0.408725 -0.910612 0.321192
v -0.307091 -0.495311 0.000282
v -0.402103 -0.950352 -0.027229
v -0.297475 -0.398234 0.199753
v 0.431147 -0.237654 0.347695
v 0.382812 0.867188 0.453125
v 0.382813 0.867188 -0.453125
v -0.128827 0.899132 -0.476077
v -0.152219 0.900982 0.465608
v -0.472638 0.527298 0.460237
v -0.312642 0.403459 0.717463
v -0.095848 0.576058 -0.781498
v -0.095848 0.576058 0.781498
v 0.342437 0.623203 0.770823
v 0.345925 0.618565 -0.774117
v 0.470120 -0.155198 -0.412197
v 0.194035 0.304138 0.838238
v 0.158480 -0.142898 0.539567
v 0.129306 -0.131573 -0.637334
v 0.319237 -0.073373 -1.048997
v 0.487198 0.072190 -1.315084
v 0.444733 0.313430 -1.363250
v 0.352791 0.493109 -1.144385
v 0.396354 0.489413 1.207696
v 0.444590 0.314025 1.211712
v 0.396365 -0.017760 1.179577
v 0.120196 -0.111136 0.799217
v 0.271337 0.430324 1.005483
v 0.293091 -0.000411 0.851778
v 0.437880 0.048217 -1.147014
v 0.444218 0.316817 -1.210577
v 0.354455 0.301681 -0.983413
v 0.308274 0.102855 -0.795922
v 0.308961 0.104465 0.790779
v 0.154644 -0.029646 -0.730791
v 0.168345 -0.014957 0.709322
v 0.191879 0.363598 -0.851212
v 0.359371 0.297194 0.985268
v 0.295795 -0.002268 -0.849688
v 0.458032 0.041631 1.142695
v 0.551496 0.489490 -1.223191
v 0.552827 0.480829 1.227002
v 0.445376 0.310916 1.363280
v 0.547001 -0.009861 1.225087
v 0.492188 -0.085938 -1.039062
v 0.328125 -0.125000 0.789062
v 0.391235 0.352238 0.833846
vt 0.900073 0.600696
vt 0.865294 0.596428
vt 0.920246 0.524366
vt 0.863045 0.814502
vt 0.897948 0.811769
vt 0.914742 0.888926
vt 0.798506 0.569552
vt 0.853018 0.521562
vt 0.795130 0.838386
vt 0.847458 0.888748
vt 0.860051 0.630865
vt 0.859266 0.779911
vt 0.842259 0.702752
vt 0.791018 0.645443
vt 0.897193 0.634433
vt 0.896148 0.777610
vt 0.844750 0.707253
vt 0.921180 0.713713
vt 0.968213 0.770220
vt 0.968392 0.573812
vt 0.611847 0.159877
vt 0.660792 0.225157
vt 0.535391 0.189605
vt 0.377394 0.233168
vt 0.423632 0.158139
vt 0.500449 0.191834
vt 0.696892 0.314498
vt 0.655324 0.271895
vt 0.718689 0.256613
vt 0.434535 0.380359
vt 0.424353 0.400567
vt 0.340548 0.318412
vt 0.438956 0.343010
vt 0.522030 0.346077
vt 0.581249 0.274621
vt 0.491024 0.260727
vt 0.521557 0.052615
vt 0.513037 0.072664
vt 0.487210 0.061933
vt 0.545922 0.166925
vt 0.526337 0.080127
vt 0.551123 0.062478
vt 0.519132 0.185382
vt 0.519841 0.200843
vt 0.517577 0.190607
vt 0.517872 0.153908
vt 0.493431 0.169151
vt 0.508300 0.085721
vt 0.523492 0.078282
vt 0.619747 0.263868
vt 0.408797 0.269807
vt 0.426270 0.263573
vt 0.391580 0.287347
vt 0.389878 0.303980
vt 0.413540 0.324355
vt 0.579590 0.310661
vt 0.603696 0.327778
vt 0.610356 0.339422
vt 0.439501 0.330982
vt 0.650757 0.299854
vt 0.647785 0.283486
vt 0.415857 0.430491
vt 0.350292 0.396229
vt 0.766492 0.308454
vt 0.643405 0.019704
vt 0.558356 0.053724
vt 0.539877 0.021327
vt 0.394896 0.019215
vt 0.511783 0.021558
vt 0.399481 0.082116
vt 0.479748 0.053805
vt 0.645964 0.082889
vt 0.355825 0.196456
vt 0.823446 0.091731
vt 0.805584 0.010786
vt 0.923249 0.061717
vt 0.963770 0.173241
vt 0.861899 0.236042
vt 0.836684 0.203906
vt 0.871997 0.327847
vt 0.819308 0.278589
vt 0.208596 0.287729
vt 0.147220 0.341845
vt 0.159892 0.240546
vt 0.825956 0.455045
vt 0.763149 0.431455
vt 0.786595 0.369001
vt 0.279331 0.457858
vt 0.217614 0.477521
vt 0.249207 0.387964
vt 0.314147 0.266573
vt 0.262597 0.316840
vt 0.259721 0.208047
vt 0.819338 0.213963
vt 0.203277 0.217482
vt 0.781780 0.141935
vt 0.772331 0.210087
vt 0.854987 0.141773
vt 0.114059 0.179686
vt 0.107997 0.046395
vt 0.200481 0.102779
vt 0.197818 0.864697
vt 0.137396 0.774299
vt 0.195111 0.800886
vt 0.560548 0.806371
vt 0.538067 0.730335
vt 0.618903 0.781339
vt 0.356280 0.692786
vt 0.253991 0.699219
vt 0.357746 0.622754
vt 0.271952 0.812762
vt 0.796877 0.178399
vt 0.245969 0.151002
vt 0.230248 0.179152
vt 0.436457 0.668277
vt 0.393069 0.690183
vt 0.391039 0.611891
vt 0.442893 0.725137
vt 0.343481 0.856604
vt 0.332923 0.748250
vt 0.425874 0.753736
vt 0.491468 0.817831
vt 0.451245 0.878689
vt 0.968392 0.645333
vt 0.529470 0.751629
vt 0.225920 0.744218
vt 0.316181 0.720208
vt 0.661965 0.735554
vt 0.707492 0.759884
vt 0.742304 0.597357
vt 0.044323 0.542309
vt 0.106750 0.582589
vt 0.095807 0.725654
vt 0.183755 0.725412
vt 0.216123 0.678120
vt 0.568363 0.712314
vt 0.658213 0.585676
vt 0.484068 0.628776
vt 0.498072 0.552315
vt 0.791018 0.762238
vt 0.918898 0.699697
vt 0.609776 0.376532
vt 0.523776 0.386711
vt 0.965038 0.841671
vt 0.619594 0.396083
vt 0.461186 0.311213
vt 0.456830 0.275187
vt 0.628962 0.425427
vt 0.626943 0.320654
vt 0.692106 0.388274
vt 0.734010 0.317916
vt 0.232648 0.003484
vt 0.915360 0.259804
vt 0.927090 0.385070
vt 0.011829 0.155367
vt 0.087610 0.412904
vt 0.098965 0.266968
vt 0.000144 0.259113
vt 0.999856 0.254640
vt 0.176788 0.196179
vt 0.196622 0.155241
vt 0.591638 0.871934
vt 0.392564 0.823320
vt 0.273470 0.604646
vt 0.049526 0.748824
vt 0.834578 0.206879
vt 0.524536 0.433700
vn -0.6563 -0.1332 0.7426
vn -0.6570 -0.1307 -0.7425
vn -0.5356 -0.7042 0.4662
vn -0.5356 -0.7042 -0.4662
vn -0.7288 -0.6682 -0.1498
vn -0.7286 -0.6690 0.1472
vn -0.6555 -0.3741 -0.6561
vn -0.7909 0.1871 -0.5826
vn -0.7878 0.1841 0.5878
vn -0.7056 0.3409 0.6212
vn -0.5701 0.7902 0.2249
vn -0.5408 0.3135 0.7806
vn -0.9964 -0.0029 0.0846
vn -0.9961 -0.0006 -0.0882
vn -0.9697 0.0715 0.2335
vn -0.9702 0.0726 -0.2310
vn -0.3048 -0.9212 0.2418
vn -0.3877 -0.8818 -0.2685
vn -0.5721 -0.4724 0.6705
vn -0.6568 0.5609 -0.5040
vn -0.7929 -0.4040 -0.4562
vn -0.8723 -0.4755 -0.1137
vn -0.8908 -0.0703 0.4490
vn -0.9781 0.2032 -0.0443
vn -0.7379 -0.6612 -0.1353
vn -0.8909 -0.0856 0.4461
vn 0.0000 0.0000 -1.0000
vn -0.5717 0.6670 0.4777
vn -0.9090 -0.3127 0.2757
vn -0.9802 -0.1472 -0.1324
vn -0.8016 -0.2111 -0.5593
vn -0.8396 0.1913 0.5085
vn 0.0536 -0.9431 -0.3282
vn -0.9191 -0.2364 0.3153
vn -0.8551 -0.3888 0.3430
vn -0.8682 -0.3635 -0.3377
vn -0.8365 -0.2229 -0.5006
vn 0.0456 0.8513 -0.5226
vn -0.8023 0.3429 -0.4886
vn -0.9799 0.1368 -0.1449
vn -0.9961 -0.0414 0.0777
vn -0.9897 0.0536 0.1327
vn 0.3048 0.7938 -0.5263
vn 0.2513 0.1359 0.9583
vn 0.9775 -0.2067 0.0422
vn 0.9556 -0.1857 -0.2289
vn 0.0997 -0.9879 -0.1190
vn 0.1898 0.1872 0.9638
vn 0.1741 0.1885 -0.9665
vn 0.9784 -0.2005 0.0504
vn 0.0970 -0.9295 -0.3558
vn 0.5757 -0.7930 0.1993
vn 0.7598 0.2740 0.5896
vn -0.0568 0.6909 0.7208
vn -0.0536 0.6831 -0.7284
vn 0.8937 0.2635 -0.3631
vn 0.8951 0.2561 0.3649
vn 0.1612 0.2878 -0.9440
vn 0.0017 0.2060 0.9786
vn -0.0126 0.2964 -0.9550
vn -0.0322 0.2209 0.9748
vn 0.0788 -0.8449 0.5292
vn -0.2475 -0.8940 0.3735
vn -0.6515 -0.5859 -0.4819
vn 0.8017 -0.1751 0.5715
vn 0.7700 -0.3685 -0.5208
vn -0.8866 -0.4625 0.0073
vn -0.9897 0.1431 0.0081
vn -0.8839 -0.1772 -0.4328
vn -0.8750 -0.3161 -0.3668
vn -0.0017 -0.7985 0.6019
vn 0.0006 -0.6759 -0.7370
vn -0.9361 0.3048 -0.1753
vn 0.1868 -0.3809 0.9056
vn -0.5758 0.6933 0.4334
vn -0.1649 -0.2745 -0.9473
vn -0.6962 -0.4323 -0.5731
vn 0.1284 -0.3015 -0.9448
vn -0.5935 -0.4895 0.6389
vn -0.9799 0.1878 0.0679
vn -0.6240 0.6745 0.3946
vn -0.8677 -0.0293 0.4962
vn -0.9010 -0.0168 -0.4334
vn -0.9238 -0.1362 0.3578
vn -0.0583 0.6468 0.7604
vn 0.0924 0.9389 -0.3315
vn 0.0292 0.9379 0.3457
vn 0.9869 -0.1315 -0.0932
vn 0.7923 -0.0118 0.6100
vn 0.7860 0.0150 -0.6180
vn 0.8120 -0.1600 0.5612
vn -0.5789 -0.3119 0.7534
vn -0.5789 -0.3115 -0.7536
vn -0.6849 -0.6822 -0.2558
vn -0.6833 -0.6836 0.2566
vn -0.6529 -0.3732 0.6591
vn -0.7097 0.3422 -0.6158
vn -0.5694 0.7906 -0.2251
vn -0.6517 0.6721 -0.3515
vn -0.5114 0.5098 -0.6918
vn -0.5411 0.3128 -0.7806
vn -0.4199 0.1812 0.8893
vn -0.4115 0.1860 -0.8922
vn -0.5862 -0.3636 0.7240
vn -0.4229 -0.4502 -0.7865
vn -0.6283 0.5792 0.5194
vn -0.5244 0.4952 0.6927
vn -0.8554 -0.3526 0.3795
vn -0.8652 -0.4953 -0.0782
vn -0.9881 0.0075 -0.1533
vn -0.9731 -0.1240 -0.1941
vn -0.9856 0.0032 0.1691
vn -0.9195 -0.3912 -0.0383
vn -0.9158 0.1685 -0.3646
vn -0.9406 -0.1157 -0.3193
vn -0.8138 -0.5770 0.0689
vn -0.9195 -0.2692 -0.2864
vn -0.9950 -0.0661 -0.0745
vn -0.8940 -0.3665 -0.2576
vn -0.9955 -0.0907 0.0282
vn -0.6306 -0.7706 0.0919
vn -0.5659 0.6602 -0.4939
vn 0.9969 0.0312 0.0726
vn -0.9685 -0.2342 -0.0842
vn -0.4201 0.1824 0.8890
vn -0.4083 0.1577 -0.8991
vn -0.0846 0.9131 -0.3988
vn -0.9895 -0.0328 0.1409
vn -0.7826 -0.6214 0.0374
vn 0.2799 0.5654 -0.7759
vn -0.2579 0.7455 0.6146
vn -0.9803 0.0615 0.1876
vn -0.9360 0.2686 0.2274
vn 0.2817 0.5640 0.7763
vn 0.0952 0.9188 0.3831
vn 0.3180 0.7987 0.5109
vn 0.3549 0.8060 -0.4737
vn 0.2023 -0.9726 0.1148
vn 0.2873 0.2235 -0.9314
vn 0.3551 -0.7728 -0.5261
vn 0.1434 -0.9796 -0.1411
vn 0.1316 -0.9251 0.3561
vn 0.9940 -0.1090 0.0050
vn 0.2373 0.1604 0.9581
vn 0.2337 0.1597 -0.9591
vn 0.5982 -0.7521 0.2766
vn 0.7092 -0.5530 0.4372
vn 0.5568 -0.7845 -0.2731
vn 0.1702 -0.8825 -0.4384
vn 0.0659 0.9857 0.1551
vn -0.3282 -0.7516 -0.5722
vn 0.8335 -0.3311 0.4424
vn 0.9531 -0.1052 -0.2837
vn 0.0683 0.9862 -0.1509
vn 0.7695 0.5545 -0.3169
vn 0.7215 0.6220 0.3041
vn -0.5934 0.5162 0.6176
vn 0.6973 0.2520 -0.6710
vn 0.7190 0.5041 0.4785
vn 0.7017 0.5220 -0.4849
vn 0.0640 0.7875 0.6129
vn 0.0766 0.7840 -0.6160
vn -0.5915 0.5212 -0.6152
vn -0.7497 0.6404 0.1666
vn -0.7700 0.6241 -0.1327
vn -0.1167 0.0821 0.9898
vn -0.0589 0.2526 0.9658
vn -0.2593 0.1168 -0.9587
vn -0.2164 -0.8310 -0.5125
vn 0.1116 0.2252 -0.9679
vn -0.0118 -0.5898 -0.8074
vn -0.3430 -0.4699 0.8134
vn 0.7306 -0.3613 -0.5794
vn -0.9849 -0.1733 0.0005
vn 0.0948 -0.9649 -0.2448
vn 0.3107 -0.5994 0.7376
vn -0.9642 -0.2652 -0.0004
vn -0.6004 0.7660 0.2297
vn -0.7607 0.6354 -0.1326
vn -0.8035 -0.2082 0.5576
vn -0.7913 0.3981 -0.4640
vn -0.6180 0.1643 -0.7688
vn -0.0507 -0.9608 0.2727
vn -0.6987 0.4357 0.5674
vn -0.6327 0.4109 -0.6565
vn -0.2303 -0.3485 0.9086
vn -0.5882 -0.4912 0.6425
vn -0.3080 -0.6139 -0.7268
vn -0.0843 0.9882 0.1275
vn -0.9847 0.1562 -0.0769
vn -0.9265 -0.0658 -0.3705
vn 0.1957 -0.9795 -0.0482
vn 0.8991 -0.0785 -0.4306
vn -0.0345 -0.8675 -0.4963
vn -0.2372 -0.4468 0.8626
vn -0.2552 0.6920 -0.6753
vn 0.2094 0.8468 0.4890
vn 0.1073 0.9311 -0.3486
vn 0.9176 0.0322 0.3961
vn 0.4324 -0.8715 -0.2315
vn -0.2128 0.8248 -0.5239
vn -0.6466 0.6721 0.3609
vn -0.6231 0.6753 -0.3947
vn -0.5312 0.4959 -0.6870
vn -0.5579 0.4699 0.6841
vn -0.9414 -0.1492 0.3026
vn -0.9341 -0.2472 0.2577
vn -0.9037 -0.2785 -0.3252
vn -0.9461 0.0259 0.3229
vn -0.7912 -0.5941 0.1454
vn -0.8806 -0.0829 -0.4666
vn -0.9899 -0.0696 0.1237
vn -0.7050 -0.7050 0.0769
vn -0.0872 0.6885 -0.7199
vn -0.0605 0.6832 0.7277
vn 0.3602 0.8081 0.4660
vn 0.0956 0.9132 -0.3961
vn 0.1117 -0.9790 0.1708
vn 0.1525 -0.8915 0.4265
vn 0.1551 -0.9093 -0.3862
vn 0.1049 0.9888 0.1062
vn 0.1044 0.9889 -0.1060
vn 0.8249 0.5056 -0.2527
vn -0.5974 0.5033 0.6243
vn -0.6053 0.4761 -0.6379
vn -0.7707 0.6225 0.1362
vn -0.7212 0.6630 -0.2009
vn -0.3663 0.1177 0.9230
vn -0.2726 -0.0539 -0.9606
vn -0.0547 -0.9983 -0.0219
vn -0.1764 -0.8511 0.4945
vn 0.8862 -0.2013 -0.4173
vn -0.9568 -0.0454 -0.2872
vn -0.5728 0.7890 0.2222
vn -0.7640 -0.5551 0.3288
vn -0.0310 -0.9624 0.2697
vn -0.0703 -0.9968 -0.0377
vn 0.9260 -0.0095 -0.3775
vn 0.8831 -0.0107 0.4690
vn -0.0606 -0.9918 0.1124
usemtl None
s off
f 21/1/1 23/2/1 19/3/1
f 24/4/2 16/5/2 20/6/2
f 23/2/3 4/7/3 1/8/3
f 3/9/4 24/4/4 2/10/4
f 23/2/5 5/11/5 4/7/5
f 22/12/6 24/4/6 3/9/6
f 9/13/7 6/14/7 5/11/7
f 5/11/8 10/15/8 9/13/8
f 15/16/9 22/12/9 8/17/9
f 15/16/10 8/17/10 12/18/10
f 15/16/11 12/18/11 14/19/11
f 19/3/12 17/20/12 21/1/12
f 23/2/13 10/15/13 5/11/13
f 22/12/14 15/16/14 24/4/14
f 23/2/15 21/1/15 10/15/15
f 15/16/16 16/5/16 24/4/16
f 30/21/17 33/22/17 43/23/17
f 44/24/18 29/25/18 49/26/18
f 34/27/19 38/28/19 81/29/19
f 46/30/20 36/31/20 45/32/20
f 39/33/21 48/34/21 46/30/21
f 45/32/22 39/33/22 46/30/22
f 43/23/23 33/22/23 67/35/23
f 67/35/24 51/36/24 43/23/24
f 50/37/25 58/38/25 31/39/25
f 52/40/26 55/41/26 32/42/26
f 25/43/27 42/44/27 41/45/27
f 25/43/28 42/44/28 49/26/28
f 43/23/29 53/46/29 52/40/29
f 53/46/30 43/23/30 54/47/30
f 42/44/31 43/23/31 51/36/31
f 49/26/32 42/44/32 51/36/32
f 55/41/33 56/48/33 57/49/33
f 58/38/34 57/49/34 56/48/34
f 33/22/35 38/28/35 68/50/35
f 62/51/36 44/24/36 63/52/36
f 61/53/37 44/24/37 62/51/37
f 39/33/38 60/54/38 59/55/38
f 64/56/39 66/57/39 40/58/39
f 39/33/40 59/55/40 72/59/40
f 70/60/41 69/61/41 38/28/41
f 38/28/42 69/61/42 68/50/42
f 36/31/43 75/62/43 77/63/43
f 81/29/44 102/64/44 34/27/44
f 93/65/45 92/66/45 94/67/45
f 93/68/46 94/69/46 90/70/46
f 94/69/47 31/39/47 91/71/47
f 32/42/48 92/66/48 95/72/48
f 91/71/49 31/39/49 90/70/49
f 92/66/50 93/65/50 95/72/50
f 29/25/51 44/24/51 80/73/51
f 96/74/52 28/75/52 83/76/52
f 27/77/53 105/78/53 138/79/53
f 100/80/54 104/81/54 105/78/54
f 103/82/55 99/83/55 106/84/55
f 74/85/56 76/86/56 101/87/56
f 75/88/57 74/89/57 77/90/57
f 79/91/58 78/92/58 84/93/58
f 108/94/59 105/78/59 104/81/59
f 106/84/60 128/95/60 103/82/60
f 105/78/61 108/94/61 138/79/61
f 96/74/62 109/96/62 95/72/62
f 81/29/63 109/96/63 87/97/63
f 80/73/64 90/70/64 29/25/64
f 88/98/65 27/77/65 138/79/65
f 86/99/66 83/100/66 107/101/66
f 114/102/67 113/103/67 122/104/67
f 116/105/68 117/106/68 134/107/68
f 126/108/69 111/109/69 110/110/69
f 123/111/70 114/102/70 122/104/70
f 109/96/71 127/112/71 87/97/71
f 110/113/72 84/93/72 126/114/72
f 118/115/73 127/116/73 109/117/73
f 87/97/74 127/112/74 108/94/74
f 118/115/75 120/118/75 127/116/75
f 128/119/76 124/120/76 126/108/76
f 128/119/77 114/102/77 124/120/77
f 84/93/78 128/95/78 126/114/78
f 125/121/79 129/122/79 119/123/79
f 120/118/80 129/122/80 125/121/80
f 13/124/81 21/1/81 17/20/81
f 131/125/82 129/122/82 120/118/82
f 123/111/83 121/126/83 130/127/83
f 129/122/84 131/125/84 116/105/84
f 134/107/85 133/128/85 115/129/85
f 115/129/86 133/128/86 119/130/86
f 128/131/87 85/132/87 132/133/87
f 112/134/88 132/133/88 136/135/88
f 133/128/89 134/107/89 135/136/89
f 112/134/90 113/103/90 132/133/90
f 138/137/91 137/138/91 88/139/91
f 19/3/92 23/2/92 1/8/92
f 2/10/93 24/4/93 20/6/93
f 4/7/94 5/11/94 6/14/94
f 7/140/95 22/12/95 3/9/95
f 8/17/96 22/12/96 7/140/96
f 10/15/97 11/141/97 9/13/97
f 10/15/98 13/124/98 11/141/98
f 14/19/99 16/5/99 15/16/99
f 47/142/100 37/143/100 48/34/100
f 20/6/101 16/5/101 18/144/101
f 30/21/102 52/40/102 32/42/102
f 31/39/103 54/47/103 29/25/103
f 33/22/104 81/29/104 38/28/104
f 45/32/105 79/91/105 44/24/105
f 35/145/106 47/142/106 34/27/106
f 46/30/107 37/143/107 36/31/107
f 48/34/108 40/58/108 47/142/108
f 70/60/109 47/142/109 40/58/109
f 45/32/110 61/53/110 60/54/110
f 45/32/111 60/54/111 39/33/111
f 38/28/112 34/27/112 70/60/112
f 67/35/113 48/34/113 51/36/113
f 49/26/114 51/36/114 44/24/114
f 48/34/115 39/33/115 65/146/115
f 50/37/116 55/41/116 58/38/116
f 51/36/117 48/34/117 65/146/117
f 54/47/118 56/48/118 53/46/118
f 58/38/119 56/48/119 31/39/119
f 55/41/120 53/46/120 56/48/120
f 51/36/121 63/52/121 44/24/121
f 25/43/122 43/23/122 42/44/122
f 49/26/123 43/23/123 25/43/123
f 54/47/124 43/23/124 49/26/124
f 30/21/125 43/23/125 52/40/125
f 54/47/126 49/26/126 29/25/126
f 55/41/127 57/49/127 58/38/127
f 73/147/128 51/36/128 65/146/128
f 67/35/129 33/22/129 68/50/129
f 76/148/130 37/143/130 35/145/130
f 40/58/131 71/149/131 70/60/131
f 65/146/132 39/33/132 72/59/132
f 40/58/133 66/57/133 71/149/133
f 37/143/134 75/62/134 36/31/134
f 101/150/135 34/27/135 102/151/135
f 35/145/136 101/150/136 76/148/136
f 77/63/137 45/32/137 36/31/137
f 92/66/138 50/37/138 94/69/138
f 79/91/139 45/32/139 78/92/139
f 80/73/140 44/24/140 79/91/140
f 94/69/141 50/37/141 31/39/141
f 95/72/142 28/75/142 96/74/142
f 90/70/143 94/69/143 91/71/143
f 30/21/144 32/42/144 95/72/144
f 90/70/145 31/39/145 29/25/145
f 30/21/146 81/29/146 33/22/146
f 88/98/147 96/74/147 83/76/147
f 107/101/148 83/100/148 28/152/148
f 28/152/149 90/70/149 107/101/149
f 97/153/150 82/154/150 100/80/150
f 84/93/151 80/73/151 79/91/151
f 27/77/152 88/98/152 83/76/152
f 86/99/153 27/155/153 83/100/153
f 82/156/154 98/157/154 99/83/154
f 26/158/155 86/99/155 98/157/155
f 26/159/156 97/153/156 27/77/156
f 104/81/157 101/87/157 102/64/157
f 86/99/158 85/160/158 106/84/158
f 27/77/159 97/153/159 105/78/159
f 106/84/160 98/157/160 86/99/160
f 97/153/161 100/80/161 105/78/161
f 106/84/162 99/83/162 98/157/162
f 103/82/163 77/90/163 99/83/163
f 82/154/164 101/87/164 100/80/164
f 82/156/165 77/90/165 74/89/165
f 104/81/166 87/97/166 108/94/166
f 81/29/167 87/97/167 102/64/167
f 78/92/168 128/95/168 84/93/168
f 110/113/169 80/73/169 84/93/169
f 106/84/170 85/160/170 128/95/170
f 107/101/171 90/70/171 80/73/171
f 109/96/172 30/21/172 95/72/172
f 107/101/173 85/160/173 86/99/173
f 112/134/174 122/104/174 113/103/174
f 107/101/175 110/113/175 89/161/175
f 96/74/176 88/98/176 109/96/176
f 115/162/177 116/105/177 134/107/177
f 120/118/178 117/106/178 131/125/178
f 121/126/179 112/134/179 111/109/179
f 119/123/180 116/105/180 115/162/180
f 126/108/181 121/126/181 111/109/181
f 116/105/182 131/125/182 117/106/182
f 137/138/183 117/106/183 118/115/183
f 125/121/184 127/116/184 120/118/184
f 130/127/185 126/108/185 124/120/185
f 108/163/186 127/116/186 125/121/186
f 108/163/187 125/121/187 119/123/187
f 124/120/188 114/102/188 123/111/188
f 121/126/189 126/108/189 130/127/189
f 130/127/190 124/120/190 123/111/190
f 123/111/191 122/104/191 121/126/191
f 111/109/192 89/164/192 110/110/192
f 138/137/193 135/136/193 137/138/193
f 136/135/194 111/109/194 112/134/194
f 117/106/195 135/136/195 134/107/195
f 113/103/196 114/165/196 132/133/196
f 114/165/197 128/131/197 132/133/197
f 119/130/198 133/128/198 138/137/198
f 85/132/199 136/135/199 132/133/199
f 137/138/200 109/117/200 88/139/200
f 108/94/201 119/166/201 138/79/201
f 13/124/202 10/15/202 21/1/202
f 14/19/203 18/144/203 16/5/203
f 47/142/204 35/145/204 37/143/204
f 46/30/205 48/34/205 37/143/205
f 48/34/206 64/56/206 40/58/206
f 70/60/207 34/27/207 47/142/207
f 45/32/208 44/24/208 61/53/208
f 67/35/209 64/56/209 48/34/209
f 50/37/210 32/42/210 55/41/210
f 54/47/211 31/39/211 56/48/211
f 55/41/212 52/40/212 53/46/212
f 51/36/213 73/147/213 63/52/213
f 76/148/214 74/167/214 37/143/214
f 37/143/215 74/167/215 75/62/215
f 101/150/216 35/145/216 34/27/216
f 77/63/217 78/92/217 45/32/217
f 92/66/218 32/42/218 50/37/218
f 95/72/219 93/65/219 28/75/219
f 28/152/220 93/68/220 90/70/220
f 97/153/221 26/159/221 82/154/221
f 82/156/222 26/158/222 98/157/222
f 26/158/223 27/155/223 86/99/223
f 104/81/224 100/80/224 101/87/224
f 103/82/225 78/92/225 77/90/225
f 82/154/226 74/85/226 101/87/226
f 82/156/227 99/83/227 77/90/227
f 104/81/228 102/64/228 87/97/228
f 78/92/229 103/82/229 128/95/229
f 110/113/230 107/101/230 80/73/230
f 109/96/231 81/29/231 30/21/231
f 107/101/232 89/161/232 85/160/232
f 112/134/233 121/126/233 122/104/233
f 120/118/234 118/115/234 117/106/234
f 119/123/235 129/122/235 116/105/235
f 137/138/236 135/136/236 117/106/236
f 111/109/237 136/135/237 89/164/237
f 138/137/238 133/128/238 135/136/238
f 85/132/239 89/164/239 136/135/239
f 137/138/240 118/115/240 109/117/240
