# Blender v3.2.0 OBJ File: ''
# www.blender.org
mtllib untitled.mtl
o Plane
v -0.707107 0.707107 1.000000
v 0.707107 -0.707107 1.000000
v -0.707107 0.707107 -1.000000
v 0.707107 -0.707107 -1.000000
v 0.677825 0.283937 0.326498
v -0.743150 1.028314 0.004046
v 1.084345 -0.122582 0.326498
v 1.084345 -0.122582 -0.248408
vt 1.000000 0.000000
vt 0.000000 1.000000
vt 0.000000 0.000000
vt 0.000000 1.000000
vt 1.000000 1.000000
vt 1.000000 1.000000
vt 0.000000 0.000000
vt 1.000000 0.000000
vn 0.7071 0.7071 0.0000
vn 0.9938 0.1115 0.0000
vn -0.8402 0.5423 0.0000
vn -0.4976 -0.4976 -0.7105
usemtl None
s off
f 2/1/1 3/2/1 1/3/1
f 1/3/2 3/2/2 6/4/2
f 2/1/3 8/5/3 4/6/3
f 2/1/4 5/7/4 7/8/4
f 2/1/1 4/6/1 3/2/1
f 2/1/3 7/8/3 8/5/3
f 2/1/4 1/3/4 5/7/4
o Plane.001
v 0.789958 0.101784 4.247493
v 1.802678 -1.202972 3.119659
v -0.039151 0.880310 2.602356
v 0.973570 -0.424446 1.474522
vt 1.000000 0.000000
vt 0.000000 1.000000
vt 0.000000 0.000000
vt 1.000000 1.000000
vn 0.7561 0.6503 -0.0733
usemtl None
s off
f 10/9/5 11/10/5 9/11/5
f 10/9/5 12/12/5 11/10/5
o Plane.002
v 1.184819 -0.288478 -2.303929
v 2.674677 -1.518474 -1.786788
v 2.292686 0.419868 -3.810872
v 3.782544 -0.810127 -3.293731
vt 1.000000 0.000000
vt 0.000000 1.000000
vt 0.000000 0.000000
vt 1.000000 1.000000
vn 0.3718 0.7045 0.6045
usemtl None
s off
f 14/13/6 15/14/6 13/15/6
f 14/13/6 16/16/6 15/14/6
